<?xml version="1.0" encoding="UTF-8" standalone="no"?><!DOCTYPE svg PUBLIC "-//W3C//DTD SVG 1.1//EN" "http://www.w3.org/Graphics/SVG/1.1/DTD/svg11.dtd"><svg width="100%" height="100%" viewBox="280 1900 3660 560" version="1.1" xmlns="http://www.w3.org/2000/svg" xmlns:xlink="http://www.w3.org/1999/xlink" xml:space="preserve" xmlns:serif="http://www.serif.com/" style="fill-rule:evenodd;clip-rule:evenodd;stroke-linejoin:round;stroke-miterlimit:2;"><g><g><g><path d="M2921.762,2142.533c-0.635,-6.88 -0.877,-13.777 -0.518,-20.348c5.085,-0.64 18.284,-0.472 57.347,-0.476c16.002,-0.002 25.883,-0.08 31.987,0.01c-2.055,10.244 -1.048,15.23 0.559,20.984c-20.896,0.145 -76.117,0.3 -89.374,-0.17Zm164.309,-193.234c3.333,1.318 0.612,8.782 2.3,15.065c1.678,6.245 -0.428,6.286 -6.41,8.648c-0.809,0.319 -1.008,-0.985 -10.663,2.104c-0.591,0.189 -0.591,-0.053 -7.457,2.126c-43.401,13.773 -60.96,36.248 -72.128,46.12c-0.527,0.466 -16.575,20.333 -21.574,30.544c-2.656,5.424 -3.242,5.049 -5.354,10.633c-0.916,2.422 -3.413,4.417 -6.354,15.989c-0.133,0.522 -0.588,0.33 -2.131,6.391c-0.97,3.809 -1.548,3.619 -1.884,7.472c-0.069,0.787 -2.004,5.526 -2.097,7.432c-0.237,4.838 0.16,5.967 -4.626,6.918c-16.826,-0.157 -18.552,0.63 -18.534,-2.671c0.106,-19.445 15.6,-57.505 22.569,-66.235c0.472,-0.592 -0.308,-1.026 4.756,-8.18c0.778,-1.099 7.647,-10.804 9.232,-14.069c0.369,-0.759 1.068,-0.113 7.336,-7.58c3.661,-4.361 3.464,-4.461 7.507,-8.501c6.545,-6.541 34.879,-35.086 82.169,-47.929c2.996,0.041 6.935,0.101 15.127,-2.337c2.636,-0.785 5.386,-1.425 8.216,-1.939Zm14.732,78.579c-0.121,-8.585 -0.076,-25.49 -0.063,-59.234c0.004,-10.714 -0.155,-16.906 -0.015,-20.947c7.734,-0.373 15.624,-0.112 23.094,0.465c0.462,3.477 0.655,11.034 0.179,34.33c-0.412,20.167 -0.106,36.006 -0.105,45.06c-8.638,-0.87 -16.44,-0.536 -23.09,0.326Zm61.737,-74.423c4.924,1.506 5.007,1.332 5.526,1.632c7.278,4.208 23.669,5.899 52.177,26.597c1.809,1.313 14.455,10.496 21.631,17.688c48.962,49.074 53.486,103.252 53.508,106.699c0.024,3.626 -4.723,2.675 -18.514,2.672c-2.587,-0.529 -3.181,0.128 -3.525,-1.515c-2.076,-9.907 -2.121,-9.859 -2.216,-10.73c-0.568,-5.24 -11.561,-33.683 -12.589,-35.019c-1.244,-1.616 -4.047,-8.207 -4.278,-8.498c-7.155,-8.995 -24.65,-46.175 -79.537,-70.74c-8.56,-3.831 -8.869,-2.832 -9.569,-3.236c-4.958,-2.865 -24.347,-6.682 -24.689,-6.775c-6.399,-1.729 -4.603,-3.902 -4.601,-14.239c0.001,-4.243 -0.342,-7.271 0.983,-8.496c12.308,1.544 22.044,3.504 25.694,3.96Zm51.864,168.275c6.87,-0.091 17.944,-0.022 35.828,-0.022c34.5,0 46.524,-0.128 51.323,0.354c0.206,3.707 0.375,8.145 0.502,13.944c-0.081,2.283 -0.19,4.535 -0.327,6.757c-0.18,0.029 -0.311,0.048 -0.382,0.058c-49.144,-0.283 -75.28,0.255 -87.955,0.011c0.975,-8.832 1.45,-15.016 1.012,-21.102Zm-78.522,190.701c-0.057,-4.429 -0.05,-17.433 0.055,-17.899c0.822,-3.65 8.546,-0.999 15.365,-4.956c2.25,-1.306 15.177,-1.205 45.431,-18.83c1.208,-0.704 18.144,-12.452 22.447,-16.777c5.843,-5.871 6.802,-4.784 10.424,-9.707c3.816,-5.187 10.405,-12.249 11.359,-13.271c0.258,-0.277 12.589,-17.713 14.557,-22.685c0.146,-0.37 3.666,-5.731 5.898,-12.637c1.088,-3.366 1.67,-3.071 2.582,-6.55c0.342,-1.303 0.405,-1.162 5.34,-15.973c2.421,-7.266 0.927,-7.586 3.784,-14.75c0.838,-2.101 1.596,-1.161 17.588,-1.74c8.361,0.444 3.366,4.77 2.448,16.562c-0.055,0.701 -1.3,0.304 -2.13,8.526c-0.071,0.703 -0.366,0.622 -2.361,8.508c-0.078,0.309 -10.985,29.226 -20.585,42.418c-9.054,12.44 -8.249,13.038 -19.222,24.358c-4.532,4.675 -3.377,5.851 -9,9.264c-0.671,0.407 -0.029,1.062 -7.406,6.429c-2.477,1.802 -1.61,2.651 -4.34,4.207c-0.608,0.347 -7.256,5.629 -15,10.75c-24.123,12.924 -46.265,18.298 -56.017,21.378c-4.632,1.463 -12.228,2.626 -21.216,3.373Zm-12.168,-76.466c0.199,9.308 0.132,27.732 0.137,65.04c0.001,6.439 -0.347,8.744 -0.645,12.164c-7.273,0.259 -14.92,0.267 -22.32,-0.023c-0.409,-18.895 -0.417,-59.279 0.003,-77.426c3.927,0.654 7.994,1.118 12.2,1.369l9.041,-0.7l1.585,-0.425Zm-126.121,42.037c-5.572,-4.327 -11.146,-9.171 -16.567,-14.585c-11.021,-11.007 -26.068,-30.93 -33.76,-46.354c-0.718,-1.439 -8.082,-16.206 -8.405,-18.264c-1.435,-9.134 -5.024,-13.622 -5.328,-15.99c-1.038,-8.081 -2.068,-7.825 -2.131,-8.525c-1.131,-12.645 -6.29,-17.168 2.449,-17.624c16.076,0.605 18.152,-1.25 18.434,2.616c0.439,6.033 1.358,5.792 2.171,11.742c0.539,3.945 6.594,21.289 7.542,23.25c0.979,2.026 9.656,19.98 13.137,24.872c4.474,6.287 4.629,6.096 9.166,12.366c7.536,10.415 13.041,15.047 14.386,16.381c23.105,22.917 48.572,33.054 50.26,33.845c14.081,6.603 14.61,5.078 15.79,5.721c4.717,2.572 5.104,0.925 7.638,1.731c5.814,1.851 5.604,2.517 11.722,2.985c6.368,0.486 4.624,10.312 4.623,14.162c-0.001,2.459 0.107,4.504 -0.058,6.027c-7.495,-0.696 -14.289,-1.771 -19.593,-3.285c-48.853,-13.94 -57.822,-21.527 -71.474,-31.072Z" style="fill-opacity:0.98;"/><path d="M3523.031,1958.71c39.223,2.762 70.766,35.498 75.522,40.433c43.219,44.852 27.796,122.995 19.081,134.398c-5.286,6.916 0.583,11.208 -19.07,30.935c-8.621,8.653 -38.381,45.794 -130.987,45.816c-41.531,0.01 -54.286,-2.819 -54.459,7.771c-1.34,82.312 3.885,88.841 -6.988,88.984c-75.005,0.989 -77.014,1.963 -79.327,-3.955c-2.77,-7.087 -1.049,-312.757 -0.896,-339.953c0.069,-12.316 6.566,-9.789 80.146,-9.79c71.046,-0.001 93.522,-1.348 116.978,5.362l16.322,121.624c-4.31,-37.66 -33.619,-51.526 -54.203,-51.742c-65.824,-0.689 -66.64,-2.337 -70.571,1.717c-2.446,2.523 -2.482,100.543 0.051,102.996c1.563,1.514 19.058,1.535 20.72,1.537c45.567,0.055 59.388,4.563 89.859,-17.691c1.318,-0.962 14.506,-20.991 14.144,-36.817l-16.322,-121.624Z" style="fill-opacity:0.99;"/><path d="M3653.606,2294.223c0.64,-42.519 0.22,-42.267 0.22,-84.961c-0,-252.43 -0.542,-254.845 3.947,-255.798c6.302,-1.338 234.73,-0.215 255.141,-0.115c11.562,0.057 9.743,4.29 9.787,15.678c0.225,58.026 -0.81,58.067 -1.178,58.441c-3.688,3.745 -174.722,-1.207 -178.79,2.823c-2.806,2.78 -2.516,59.556 -0.001,62.04c4.141,4.089 157.643,-0.872 161.242,2.797c2.018,2.057 1.495,64.356 0.341,67.372c-3.751,9.802 -158.938,-1.19 -162.873,6.292c-0.806,1.532 -0.49,59.161 0.019,60.403c1.212,2.95 2.577,2.461 159.71,2.475c19.424,0.002 27.232,-3.685 27.343,15.678c0.315,55.096 0.164,57.175 -3.821,58.745c-9.128,3.596 -242.705,1.178 -263.809,0.96c-9.006,-0.093 -6.777,-3.765 -7.277,-12.83Z" style="fill-opacity:0.99;"/><path d="M2302.994,2048.18c3.951,-91.753 116.443,-98.374 121.538,-99.883c18.291,-5.418 87.853,7.964 99.768,11.732c1.593,0.504 17.921,5.668 19.669,7.035c9.673,7.567 10.867,5.2 11.682,5.855c17.854,14.369 20.471,13.981 19.243,22.62c-0.14,0.985 -26.28,45.319 -27.047,46.847c-8.428,16.812 -17.64,4.564 -18.459,4.074c-49.21,-29.386 -91.601,-23.965 -98.861,-23.596c-16.44,0.834 -39.171,15.866 -39.948,25.416c-1.25,15.351 0.461,15.501 8.104,22.827c18.301,17.54 24.81,12.57 31.875,14.869c3.018,0.982 27.872,9.071 38.169,10.81c10.27,1.734 10.153,1.395 20.039,4.837c14.357,4.998 18.682,4.2 20.881,4.908c31.595,10.178 60.676,35.938 64.568,44.022c24.634,51.168 10.327,82.947 -3.894,111.038c-3.904,7.712 -29.991,27.783 -34.27,29.893c-31.399,15.486 -32.7,11.272 -41.401,13.696c-24.023,6.691 -24.302,5.242 -26.371,5.866c-12.381,3.737 -57.931,1.178 -58.415,1.029c-23.93,-7.343 -42.558,-6.268 -79.144,-23.423c-2.639,-1.237 -23.506,-11.022 -31.257,-18.707c-13.642,-13.527 -3.15,-15.504 3.816,-29.103c18.196,-35.522 19.948,-34.499 21.479,-37.607c0.904,-1.835 3.382,-6.866 24.333,7.873c43.876,30.866 123.766,37.698 143.611,10.314c16.858,-23.262 -7.381,-35.867 -9.925,-37.947c-15.33,-12.536 -65.166,-12.986 -119.823,-35.463c-6.146,-2.527 -46.219,-19.007 -58.691,-58.777c-4.341,-13.843 -1.636,-37.789 -1.267,-41.055Z" style="fill-opacity:0.98;"/><path d="M2598.924,2141.86c0.018,-1.642 0.251,-24.264 0.273,-26.374c0.433,-42.103 13.415,-61.591 24.999,-81.72c10.341,-17.969 9.917,-18.204 26.816,-34.588c23.021,-22.321 61.103,-38.531 63.551,-39.152c77.818,-19.744 78.806,-10.383 123.26,-6.516c3.704,0.322 31.622,11.354 32.3,11.489c14.543,2.888 59.235,36.138 59.271,45.03c0,0.036 1.713,1.565 -42.741,46.046c-17.663,17.673 -18.48,-2.5 -43.724,-15.504c-35.596,-18.337 -51.072,-12.323 -57.858,-12.03c-35.234,1.523 -35.543,2.969 -63.833,23.563c-8.114,5.907 -12.73,16.49 -15.486,19.366c-21.235,22.159 -28.542,93.701 9.337,131.498c43.235,43.142 86.942,29.798 102.031,28.633c6.638,-0.512 38.428,-18.267 44.825,-24.41c20.01,-19.213 26.625,-0.684 58.228,30.921c18.239,18.24 2.942,20.458 -15.462,38.138c-7.655,7.354 -8.939,5.221 -17.649,11.392c-18.168,12.873 -71.116,25.455 -75.721,25.185c-6.749,-0.397 -48.538,0.568 -52.846,-0.755c-2.324,-0.714 -22.285,-6.844 -29.358,-7.839c-23.392,-3.29 -30.853,-12.494 -40.529,-16.503c-12.306,-5.1 -11.611,-6.344 -12.684,-6.754c-5.102,-1.951 -4.29,-2.905 -8.947,-6.08c-23.063,-15.719 -40.082,-41.43 -40.405,-42.081c-18.658,-37.672 -26.618,-46.881 -27.647,-90.954Z" style="fill-opacity:0.98;"/></g><path d="M639.598,2045.573c-0.141,5.331 -1.184,44.636 -19.896,63.618c-15.589,15.814 -22.342,16.52 -16.095,20.347c18.136,11.112 19.971,8.82 33.566,25.245c2.884,3.484 42.717,69.419 -10.351,122.651c-26.303,26.385 -64.451,29.629 -70.568,30.149c-1.655,0.141 -1.289,1.252 -20.557,2.952c-6.116,0.54 -5.592,2.614 -14.747,2.669c-14.073,0.083 -168.07,0.995 -175.916,-0.133c-8.158,-1.173 -6.92,-5.214 -6.92,-135.663c0,-217.29 -0.555,-219.627 3.874,-220.614c0.857,-0.191 189.559,-0.504 193.707,0.07c34.128,4.726 57.483,17.625 62.052,20.148c5.057,2.793 25.906,14.307 40.682,59.655c0.223,0.683 0.563,1.728 1.169,8.906l-150.883,191.893c40.818,-0.002 44.395,3.871 66.522,-11.434c3.33,-2.303 17.204,-25.491 3.946,-39.977c-20.354,-22.24 -34.747,-19.322 -111.485,-19.284c-14.923,0.007 -15.905,-3.197 -20.744,1.618c-2.016,2.006 -1.585,15.437 -1.58,58.825c0.002,17.133 8.282,10.68 25.256,10.675c19.067,-0.005 18.878,-0.031 38.085,-0.422l150.883,-191.893l-124.323,51.203c13.518,-3.909 14.265,-2.111 19.874,-7.742c2.357,-2.366 24.464,-24.559 11.594,-40.1c-6.077,-7.338 -6.835,-6.43 -7.295,-7.102c-4.341,-6.33 -5.69,-4.55 -11.871,-8.998c-9.479,-6.821 -10.675,-3.312 -82.822,-3.856c-6.305,-0.047 -9.224,-2.335 -11.774,-2.561c-10.599,-0.942 -7.564,19.462 -7.643,45.526c-0.051,16.933 -6.55,25.208 10.645,25.243c77.283,0.157 77.166,-0.287 79.293,-0.41l124.323,-51.203Z" style="fill-opacity:0.99;"/><path d="M1462.84,2077.8c-0.255,12.22 3.877,84.317 -60.422,110.66c-15.664,6.418 22.726,36.045 39.681,67.343c5.324,9.828 53.266,57.254 28.104,57.405c-86.187,0.518 -87.193,2.679 -92.984,-1.991c-1.155,-0.931 -0.84,-1.079 -11.579,-14.486c-0.768,-0.959 0.366,-1.465 -7.877,-13.186c-53.944,-76.713 -53.471,-77.652 -57.351,-78.174c-1.384,-0.186 -40.365,-0.093 -41.191,-0.11c-16.857,-0.361 -10.706,8.011 -10.706,24.883c-0,76.602 2.413,82.987 -9.769,83.055c-76.577,0.426 -79.404,-0.244 -80.084,-6.722c-2.842,-27.052 -0.237,-27.008 -0.156,-340.013c0.004,-16.494 8.149,-9.821 24.544,-9.82c157.253,0.016 157.435,-1.141 178.439,4.735c31.547,8.825 33.199,5.367 59.577,24.556c23.549,17.131 27.05,34.45 33.463,42.827c1.151,1.503 0.451,1.674 7.037,22.596c0.636,2.02 0.75,2.382 1.273,26.444l-133.116,-45.346c-6.299,-0.254 -75.853,-3.056 -78.801,-0.139c-2.404,2.379 -2.418,20.272 -2.419,22.047c-0.053,68.51 0.119,68.386 0.576,73.581c0.397,4.514 2.593,4.759 77.511,4.48c11.899,-0.044 11.287,-2.109 20.921,-6.97c37.363,-18.849 43.844,-75.196 -17.788,-92.998l133.116,45.346Z" style="fill-opacity:0.99;"/><path d="M941.371,2159.818c-0.757,8.535 -1.619,9.752 -10.267,9.819c-142.68,1.104 -151.038,-5.827 -151.438,7.779c-1.691,57.503 -0.098,59.21 4.655,59.95c9.553,1.487 175.545,-1.565 178.796,1.768c3.758,3.853 2.281,4.572 1.332,67.263c-0.131,8.656 -4.92,6.798 -77.296,6.798c-192.831,0 -194.803,0.578 -196.483,-3.851c-0.712,-1.879 -2.611,-342.277 0.997,-348.317c3.04,-5.091 4.751,-4.386 166.189,-4.386c97.3,0 99.417,-0.788 100.577,3.637c0.337,1.284 0.725,65.56 -0.017,68.043c-1.461,4.891 -3.93,3.508 -165.014,3.653c-17.841,0.016 -13.648,7.532 -13.648,25.315c0.001,12.733 -2.121,39.027 4.578,39.405c18.025,1.017 151.758,-1.858 155.366,1.796c2.405,2.436 1.081,3.07 1.672,61.327Z" style="fill-opacity:0.99;"/><path d="M1744.084,1969.4c1.414,-9.686 -0.494,-11.547 4.162,-12.59c0.735,-0.165 16.388,-0.164 17.813,-0.164c53.137,0.002 63.651,-2.966 65.286,9.727c0.235,1.822 0.136,106.734 -0.085,108.57c-6.527,54.123 -1.116,54.209 -2.65,123.019c-0.201,8.995 -3.758,9.026 -6.012,23.54c-0.659,4.245 -11.485,25.996 -11.649,26.5c-5.372,16.459 -9.814,13.398 -14.4,20.944c-6.061,9.975 -8.011,7.823 -16.65,15.997c-18.639,17.635 -22.21,12.113 -30.994,19.033c-6.397,5.039 -10.21,2.98 -17.469,6.512c-8.659,4.212 -25.164,4.512 -33.027,6.781c-23.808,6.872 -79.432,-3.191 -84.775,-4.883c-59.896,-18.97 -83.652,-52.676 -96.785,-93.891c-4.305,-13.51 -6.186,-26.886 -6.52,-29.261c-0.507,-3.607 -0.422,-225.666 -0.043,-228.904c0.58,-4.958 10.687,-3.729 62.416,-3.704c16.361,0.008 24.491,-6.69 24.527,9.826c0.468,214.748 -3.955,217.38 15.512,246.906c22.869,34.685 81.904,34.591 108.93,7.548c14.794,-14.804 11.498,-18.485 16.793,-29.365c6.941,-14.262 1.248,-174.723 3.256,-190.018c2.1,-15.996 2.47,-15.774 2.366,-32.125Z" style="fill-opacity:0.99;"/><path d="M2157.169,1957.68l0,2.93c-0.206,1.351 -3.062,1.124 -3.268,2.475c-0.643,4.206 0.195,4.221 0.192,53.184c-0,8.184 -0.326,8.159 -0.028,9.295c0.568,2.166 2.527,0.231 3.103,2.428l0,2.93c-34.121,4.423 -106.044,-4.524 -108.57,5.984c-0.917,3.814 1.746,272.028 -1.462,275.087c-2.081,1.984 -82.67,1.922 -84.622,0.008c-3.604,-3.533 0.315,-274.797 -2.916,-278.308c-5.114,-5.557 -101.994,3.842 -105.816,-5.615c-1.013,-2.507 -2.573,-61.292 0.956,-67.035c2.997,-4.877 4.58,-4.396 160.343,-4.402c132.634,-0.006 132.603,-0.141 142.087,1.038Z" style="fill-opacity:1;"/><path d="M1014.086,1958.643c10.376,-4.008 82.454,-2.047 83.793,-0.748c2.365,2.294 2.298,351.899 0.031,354.093c-4.54,4.395 -5.684,1.581 -78.977,1.229c-9.025,-0.043 -6.882,-3.831 -6.878,-12.762c0.132,-334.109 -0.869,-334.475 2.031,-341.812Z" style="fill-opacity:1;"/><path d="M2157.169,1960.61l0,67.383c-0.576,-2.197 -2.535,-0.262 -3.103,-2.428c-0.298,-1.136 0.027,-1.111 0.028,-9.295c0.003,-48.964 -0.835,-48.978 -0.192,-53.184c0.206,-1.351 3.062,-1.124 3.268,-2.475Z" style="fill:#fff;fill-opacity:0.38;"/></g><g><path d="M3276.868,2108.742c-2.587,-0.529 -3.181,0.128 -3.525,-1.515c-2.076,-9.907 -2.121,-9.859 -2.216,-10.73c-0.568,-5.24 -11.561,-33.683 -12.589,-35.019c-1.244,-1.616 -4.047,-8.207 -4.278,-8.498c-7.155,-8.995 -24.65,-46.175 -79.537,-70.74c-8.56,-3.831 -8.869,-2.832 -9.569,-3.236c-4.958,-2.865 -24.347,-6.682 -24.689,-6.775c-6.399,-1.729 -4.603,-3.902 -4.601,-14.239c0.001,-6.836 -0.888,-10.518 5.734,-8.586c5.029,1.467 5.464,0.445 7.465,1.045c9.65,2.895 9.829,1.861 10.657,2.124c7.729,2.456 7.742,2.164 8.346,2.513c7.278,4.208 23.669,5.899 52.177,26.597c1.809,1.313 14.455,10.496 21.631,17.688c48.962,49.074 53.486,103.252 53.508,106.699c0.024,3.626 -4.723,2.675 -18.514,2.672Z" style="fill-opacity:0.99;"/><path d="M2947.693,2108.741c-16.826,-0.157 -18.552,0.63 -18.534,-2.671c0.106,-19.445 15.6,-57.505 22.569,-66.235c0.472,-0.592 -0.308,-1.026 4.756,-8.18c0.778,-1.099 7.647,-10.804 9.232,-14.069c0.369,-0.759 1.068,-0.113 7.336,-7.58c3.661,-4.361 3.464,-4.461 7.507,-8.501c7.474,-7.469 43.364,-43.635 103.45,-52.342c6.36,-0.922 2.408,7.931 4.362,15.202c1.678,6.245 -0.428,6.286 -6.41,8.648c-0.809,0.319 -1.008,-0.985 -10.663,2.104c-0.591,0.189 -0.591,-0.053 -7.457,2.126c-43.401,13.773 -60.96,36.248 -72.128,46.12c-0.527,0.466 -16.575,20.333 -21.574,30.544c-2.656,5.424 -3.242,5.049 -5.354,10.633c-0.916,2.422 -3.413,4.417 -6.354,15.989c-0.133,0.522 -0.588,0.33 -2.131,6.391c-0.97,3.809 -1.548,3.619 -1.884,7.472c-0.069,0.787 -2.004,5.526 -2.097,7.432c-0.237,4.838 0.16,5.967 -4.626,6.918Z" style="fill-opacity:0.99;"/><path d="M2933.85,2156.66c16.076,0.605 18.152,-1.25 18.434,2.616c0.439,6.033 1.358,5.792 2.171,11.742c0.539,3.945 6.594,21.289 7.542,23.25c0.979,2.026 9.656,19.98 13.137,24.872c4.474,6.287 4.629,6.096 9.166,12.366c7.536,10.415 13.041,15.047 14.386,16.381c23.105,22.917 48.572,33.054 50.26,33.845c14.081,6.603 14.61,5.078 15.79,5.721c4.717,2.572 5.104,0.925 7.638,1.731c5.814,1.851 5.604,2.517 11.722,2.985c6.368,0.486 4.624,10.312 4.623,14.162c-0.002,6.866 0.836,10.502 -5.754,8.586c-4.367,-1.27 -7.168,-0.606 -8.531,-1.045c-9.519,-3.07 -9.729,-2.087 -10.48,-2.51c-0.576,-0.324 -45.419,-10.482 -82.928,-47.945c-11.021,-11.007 -26.068,-30.93 -33.76,-46.354c-0.718,-1.439 -8.082,-16.206 -8.405,-18.264c-1.435,-9.134 -5.024,-13.622 -5.328,-15.99c-1.038,-8.081 -2.068,-7.825 -2.131,-8.525c-1.131,-12.645 -6.29,-17.168 2.449,-17.624Z" style="fill-opacity:0.99;"/><path d="M3290.711,2156.656c8.361,0.444 3.366,4.77 2.448,16.562c-0.055,0.701 -1.3,0.304 -2.13,8.526c-0.071,0.703 -0.366,0.622 -2.361,8.508c-0.078,0.309 -10.985,29.226 -20.585,42.418c-9.054,12.44 -8.249,13.038 -19.222,24.358c-4.532,4.675 -3.377,5.851 -9,9.264c-0.671,0.407 -0.029,1.062 -7.406,6.429c-2.477,1.802 -1.61,2.651 -4.34,4.207c-0.879,0.501 -14.394,11.327 -25.587,17.059c-0.822,0.421 -8.435,4.319 -10.102,5.591c-0.343,0.262 -28.669,11.729 -34.825,12.394c-6.222,0.672 -20.938,5.209 -21.679,1.91c-0.096,-0.426 -0.11,-18.797 0.015,-19.352c0.822,-3.65 8.546,-0.999 15.365,-4.956c2.25,-1.306 15.177,-1.205 45.431,-18.83c1.208,-0.704 18.144,-12.452 22.447,-16.777c5.843,-5.871 6.802,-4.784 10.424,-9.707c3.816,-5.187 10.405,-12.249 11.359,-13.271c0.258,-0.277 12.589,-17.713 14.557,-22.685c0.146,-0.37 3.666,-5.731 5.898,-12.637c1.088,-3.366 1.67,-3.071 2.582,-6.55c0.342,-1.303 0.405,-1.162 5.34,-15.973c2.421,-7.266 0.927,-7.586 3.784,-14.75c0.838,-2.101 1.596,-1.161 17.588,-1.74Z" style="fill-opacity:0.99;"/><path d="M3107.487,1934.022l1.065,0c0.488,0.127 0.462,1.05 0.95,1.178c0.43,0.112 3.289,0.858 5.561,0.055c0.488,-0.173 0.458,-1.06 0.946,-1.233l1.065,0c0.222,0.372 -0.479,1.119 1.324,2.222c4.659,2.849 3.264,3.887 4.793,9.059c0.844,2.854 1.465,4.956 0.807,37.189c-0.621,30.436 0.39,51.014 -0.475,53.29c-1.321,3.475 -3.856,3.535 -4.302,3.545c-15.522,0.368 -15.468,-0.748 -17.378,-2.138c-1.28,-0.931 -1.13,-1.33 -1.104,-68.546c0.01,-24.857 -0.86,-25.376 3.172,-31.152c1.547,-2.216 2.905,-1.914 3.318,-2.308c0.286,-0.274 -0.029,-0.887 0.257,-1.16Z" style="fill-opacity:0.99;"/><path d="M3117.075,2330.298l-1.065,0c-0.853,-0.144 -0.125,-1.007 -0.919,-1.142c-0.443,-0.075 -2.741,-0.463 -5.612,0.038c-0.473,0.083 -0.453,1.021 -0.926,1.103l-1.065,0c-0.282,-0.271 0.016,-0.872 -0.266,-1.144c-0.031,-0.03 -2.444,-0.016 -5.835,-5.922c-1.057,-1.841 -1.1,-94.755 -0.012,-96.648c1.755,-3.055 19.95,-1.486 20.736,-0.864c1.997,1.58 1.732,2.149 1.741,75.284c0.001,10.173 -0.868,10.027 -1.037,20.265c-0.066,4.027 -3.86,7.119 -4.63,7.501c-1.112,0.552 -0.649,0.893 -1.11,1.528Z" style="fill-opacity:0.99;"/><path d="M3301.347,2142.82c-77.704,-0.448 -97.888,1.159 -98.288,-1.522c-0.11,-0.74 -0.099,-16.383 -0.019,-17.184c0.282,-2.85 1.78,-2.407 47.192,-2.407c52.542,0 52.954,-0.296 55.103,1.716c4.374,4.093 6.476,5.193 3.548,15.694c-0.76,2.728 -6.871,3.607 -7.536,3.703Z" style="fill-opacity:0.99;"/><path d="M2913.077,2136.954l0,-1.065c0.176,-0.489 1.048,-0.476 1.224,-0.965c0.777,-2.158 0.077,-4.115 -0.042,-4.45c-0.172,-0.481 -1.01,-0.495 -1.182,-0.976l0,-1.065c0.27,-0.28 0.87,0.025 1.14,-0.255c0.302,-0.313 0.032,-0.43 3.291,-4.334c2.091,-2.505 2.719,-2.127 61.082,-2.133c40.146,-0.004 41.762,-0.49 41.879,2.403c0.712,17.638 0.147,18.081 -1.276,18.498c-0.483,0.141 -97.978,0.581 -100.281,-0.282c-2.32,-0.87 -3.792,-4.011 -3.995,-4.443c0,0 -1.693,-0.856 -1.84,-0.931Z" style="fill-opacity:0.99;"/><path d="M3121.894,2049.607c0.004,21.254 0.805,23.787 -2.674,23.816c-11.473,0.098 -17.252,0.678 -17.385,-2.466c-1.005,-23.749 -0.654,-24.493 1.302,-24.872c0.21,-0.041 16.808,-0.007 17.202,0.032c1.722,0.17 1.022,0.888 1.554,3.49Z" style="fill-opacity:0.99;"/><path d="M3120.359,2190.96c0.306,0.53 1.01,0.749 1.316,1.278c0.331,0.573 0.1,21.699 0.08,23.586c-0.018,1.637 0.273,2.086 -1.395,2.433c-0.245,0.051 -15.656,0.054 -16.117,-0.011c-2.457,-0.345 -2.612,-1.352 -2.461,-24.856c0.023,-3.531 5.181,-2.527 18.577,-2.43Z" style="fill-opacity:0.99;"/><path d="M3195.398,2125.249c-0.139,15.747 0.59,17.395 -2.669,17.435c-20.838,0.25 -21.085,0.819 -22.349,-0.447c-0.109,-0.109 -1.958,-17.267 1.308,-19.849c1.32,-1.043 1.515,-1.198 21.012,-0.891c2.767,0.044 2.184,1.031 2.697,3.752Z" style="fill-opacity:0.99;"/><path d="M3028.103,2125.247c0.519,-2.752 -0.023,-3.7 2.691,-3.748c1.363,-0.024 1.347,0.045 17.044,0.137c5.913,0.034 4.756,5.279 4.644,18.538c-0.023,2.668 -1.313,2.704 -21.709,2.485c-3.265,-0.035 -2.535,-1.724 -2.67,-17.412Z" style="fill-opacity:0.99;"/><path d="M3100.542,2136.867c-4.438,-15.263 10.853,-17.512 12.306,-17.059c5.811,1.81 6.356,2.536 6.709,3.006c0.378,0.503 4.109,5.473 4.223,6.635c1.747,17.809 -19.657,19.362 -23.239,7.418Z" style="fill-opacity:0.99;"/><path d="M3092.277,2126.46c0.72,2.374 2.483,14.032 -2.888,14.066c-23.561,0.151 -24.757,0.035 -24.853,-2.449c-0.281,-7.257 -1.272,-13.159 4.597,-13.199c0.378,-0.003 16.133,-0.007 19.181,-0.007c3.14,0 2.916,0.684 3.963,1.589Z" style="fill-opacity:0.99;"/><path d="M3130.39,2131.628c0.109,-1.755 0.123,-6.175 2.584,-6.704c0.496,-0.107 22.899,-0.094 23.586,0.006c3.456,0.5 3.049,13.497 0.948,15.165c-0.968,0.769 -23.412,0.527 -24.488,0.122c-3.019,-1.137 -2.577,-7.141 -2.631,-8.589Z" style="fill-opacity:0.99;"/><path d="M3104.65,2177.144c-0.23,-0.626 -0.846,-0.596 -0.715,-21.022c0.01,-1.589 0.137,-3.164 2.43,-3.522c12.019,-1.877 12.134,1.447 12.168,2.439c0.768,22.308 0.332,22.841 -1.427,23.518c-7.26,2.793 -11.675,-0.782 -12.454,-1.413Z" style="fill-opacity:0.99;"/><path d="M3104.823,2100.734c-0.001,-1.118 -0.015,-13.187 0.186,-13.972c0.243,-0.947 0.501,-1.955 12.154,-1.273c2.805,0.164 0.566,16.718 1.77,20.667c2.492,8.173 -2.916,5.692 -11.466,5.619c-3.488,-0.03 -2.573,-5.602 -2.645,-11.041Z" style="fill-opacity:0.99;"/><path d="M2913.077,2285.373l0,-11.125c0.299,0.838 1.758,0.862 2.057,1.7c0.209,0.584 1.426,3.989 0.074,7.746c-0.306,0.851 -1.824,0.828 -2.131,1.679Z" style="fill:#fff;fill-opacity:0.31;"/></g><path d="M739.659,2597.012l-20.508,0c1.301,-0.227 1.246,-2.807 2.546,-3.034c7.897,-1.379 14.217,-0.311 15.435,-0.106c2.183,0.369 0.18,2.743 2.527,3.14Z" style="fill-opacity:0.99;"/></g></svg>